<?xml version="1.0" encoding="UTF-8" standalone="no"?>
<!-- Created with Inkscape (http://www.inkscape.org/) -->

<svg
   xmlns:dc="http://purl.org/dc/elements/1.1/"
   xmlns:cc="http://creativecommons.org/ns#"
   xmlns:rdf="http://www.w3.org/1999/02/22-rdf-syntax-ns#"
   xmlns:svg="http://www.w3.org/2000/svg"
   xmlns="http://www.w3.org/2000/svg"
   xmlns:sodipodi="http://sodipodi.sourceforge.net/DTD/sodipodi-0.dtd"
   xmlns:inkscape="http://www.inkscape.org/namespaces/inkscape"
   width="186.41377mm"
   height="60.967037mm"
   viewBox="0 0 186.41377 60.967037"
   version="1.1"
   id="svg8"
   inkscape:version="0.92.4 (5da689c313, 2019-01-14)"
   sodipodi:docname="ResistorVelues.svg">
  <defs
     id="defs2" />
  <sodipodi:namedview
     id="base"
     pagecolor="#ffffff"
     bordercolor="#666666"
     borderopacity="1.0"
     inkscape:pageopacity="0.0"
     inkscape:pageshadow="2"
     inkscape:zoom="1.4"
     inkscape:cx="403.45019"
     inkscape:cy="24.982663"
     inkscape:document-units="mm"
     inkscape:current-layer="layer1"
     showgrid="false"
     inkscape:object-paths="true"
     inkscape:snap-smooth-nodes="true"
     inkscape:window-width="1920"
     inkscape:window-height="1017"
     inkscape:window-x="-8"
     inkscape:window-y="32"
     inkscape:window-maximized="1"
     fit-margin-top="0"
     fit-margin-left="0"
     fit-margin-right="0"
     fit-margin-bottom="0" />
  <metadata
     id="metadata5">
    <rdf:RDF>
      <cc:Work
         rdf:about="">
        <dc:format>image/svg+xml</dc:format>
        <dc:type
           rdf:resource="http://purl.org/dc/dcmitype/StillImage" />
        <dc:title></dc:title>
      </cc:Work>
    </rdf:RDF>
  </metadata>
  <g
     inkscape:label="Layer 1"
     inkscape:groupmode="layer"
     id="layer1"
     transform="translate(-21.630697,-118.01648)">
    <g
       id="g840"
       transform="translate(0,66.081019)">
      <path
         transform="rotate(15)"
         style="opacity:1;fill:#f2b63c;fill-opacity:1;stroke:none;stroke-width:2.6170001;stroke-linecap:round;stroke-linejoin:round;stroke-miterlimit:4;stroke-dasharray:none;stroke-opacity:1;paint-order:fill markers stroke"
         d="m 47.57032,49.763672 h 12.095239 12.095239 v 4.892627 4.892626 19.570508 4.892626 4.892627 H 59.665559 47.57032 V 84.012059 79.119433 59.548925 54.656299 Z"
         id="path837"
         inkscape:connector-curvature="0"
         sodipodi:nodetypes="ccccccccccccccc" />
      <path
         id="path851"
         transform="scale(0.26458333)"
         d="m 115.75391,278.16406 -4.78711,17.86133 -4.78516,17.86133 -7.328124,27.34766 c 0.48201,5.90156 -2.695411,13.98965 2.300784,16.05664 1.33897,0.55395 2.08364,-3.01068 3.47656,-2.61133 3.76259,1.07872 0.32584,11.22807 4.23047,10.95508 4.69671,-0.32837 -0.29681,-10.60669 3.20312,-13.75586 0.65351,-0.58802 1.92616,-0.86764 2.61719,-0.32422 6.44668,5.06946 -5.38537,24.29325 2.81445,24.4414 7.81544,0.14136 -4.11291,-21.50517 3.52149,-23.18359 2.82698,-0.62151 1.9233,7.67951 4.78515,7.24609 3.39377,-0.51397 0.15266,-7.79806 2.875,-9.88867 0.74019,-0.56842 2.06468,-0.63674 2.79883,-0.0605 5.08381,3.98998 -2.26529,19.15318 4.19336,18.92773 4.80971,-0.16789 -2.65424,-13.78374 2.13281,-14.2793 3.2365,-0.33505 0.13917,9.32084 3.38868,9.1543 4.42164,-0.22662 -0.97656,-11.76301 3.3125,-12.86133 2.5122,-0.6433 2.76647,6.11304 5.32226,5.67383 3.63257,-0.62425 0.76352,-10.39851 4.43945,-10.12891 9.73177,0.71376 -1.98642,29.29008 7.71485,28.24024 6.29703,-0.68141 -5.3505,-18.5773 0.9707,-18.97656 4.00138,-0.25274 -1.88737,11.75559 2.1211,11.83984 5.3537,0.11252 -1.85765,-15.49968 3.49414,-15.68164 2.62722,-0.0893 -0.39436,7.55893 2.23437,7.56445 2.85012,0.006 -0.38817,-8.35705 2.45703,-8.18945 7.18365,0.42315 -3.46131,21.33937 3.73438,21.26172 9.18275,-0.0991 -4.99747,-26.80116 4.17578,-27.23047 4.67506,-0.2188 -1.26025,13.81035 3.41601,13.61914 l 1.5625,-5.82813 c -0.66616,-4.27297 -2.03319,-9.34665 0.97852,-9.51757 0.69733,-0.0396 1.0933,0.33711 1.31445,0.95703 l 11.75391,-43.86524 -40.2832,-10.79297 z"
         style="opacity:1;fill:#3ec169;fill-opacity:1;stroke:none;stroke-width:10.0724411;stroke-linecap:round;stroke-linejoin:round;stroke-miterlimit:4;stroke-dasharray:none;stroke-opacity:1;paint-order:fill markers stroke"
         inkscape:connector-curvature="0" />
      <path
         id="rect845"
         transform="scale(0.26458333)"
         d="m 124.98828,228.20898 -4.78711,17.86133 -4.78515,17.86133 -7.32813,27.34766 c 0.48201,5.90157 1.22193,11.37488 2.30078,16.05664 0.59461,2.58037 0.83046,7.24457 3.47656,7.14453 3.2232,-0.12184 0.3776,-8.51096 3.56641,-8.99609 1.92883,-0.29345 1.75791,4.90029 3.67774,4.55273 2.91664,-0.52803 -0.10365,-7.87555 2.80664,-8.4375 1.95289,-0.37708 2.78825,2.87629 3.85546,4.55469 1.83601,2.88746 0.85774,9.3656 4.2793,9.33008 3.23922,-0.0335 0.9784,-7.45409 3.86914,-8.91602 0.93447,-0.47259 2.15859,1.22986 3.0625,0.70117 1.93431,-1.13127 -0.33301,-6.36553 1.90625,-6.44531 4.57438,-0.16295 0.25235,12.53673 4.81836,12.85742 1.63756,0.11501 1.31395,-3.05533 2.35547,-4.32422 1.10504,-1.34628 2.28748,-3.5778 4.01367,-3.3457 2.17339,0.29221 1.56683,5.39789 3.75977,5.39648 1.88348,-0.001 1.34238,-4.70727 3.22461,-4.63867 3.07914,0.1122 1.64959,8.33494 4.70703,7.95313 3.91643,-0.48908 -0.5765,-10.86957 3.33984,-11.35938 2.31175,-0.28913 1.23334,5.96118 3.5625,6.01367 1.39753,0.0315 0.95968,-3.10041 2.29688,-3.50781 1.2033,-0.36661 2.52557,0.64341 3.47656,1.4668 1.75187,1.51679 1.30767,6.34366 3.5918,5.95312 3.97641,-0.67988 -1.55743,-11.45374 2.45703,-11.85156 3.27195,-0.32424 0.57806,9.2874 3.85937,9.07812 2.79969,-0.17853 0.23581,-6.18366 2.28321,-8.10156 0.61401,-0.57517 1.72656,-0.91967 2.46875,-0.52344 3.35877,1.79319 0.43837,10.48945 4.24414,10.60352 3.09237,0.0927 0.98191,-7.55287 3.95898,-8.39453 l 4.42188,-16.50391 4.7871,-17.86132 4.78516,-17.86329 -44.15625,-11.83007 z"
         style="opacity:1;fill:#ea493f;fill-opacity:1;stroke:none;stroke-width:10.0724411;stroke-linecap:round;stroke-linejoin:round;stroke-miterlimit:4;stroke-dasharray:none;stroke-opacity:1;paint-order:fill markers stroke"
         inkscape:connector-curvature="0" />
      <path
         id="rect839"
         transform="scale(0.26458333)"
         d="m 124.98828,228.20898 -4.78711,17.86133 -4.78515,17.86133 -0.96875,3.61719 c -0.21918,5.01465 -1.41378,10.76172 1.48828,10.76172 4.44089,0 -1.63266,-15.98759 2.71875,-17.1543 1.42353,-0.38166 1.04225,4.86154 2.49023,4.70703 2.18794,-0.23462 0.63977,-7.73468 2.83399,-7.81836 1.36084,-0.052 0.61547,4.51074 1.96875,4.70508 1.01797,0.14614 1.00641,-3.14053 2.02734,-3.03516 1.7252,0.17747 1.0489,5.8767 2.77734,5.76758 1.96022,-0.12303 0.70953,-7.16567 2.66211,-6.90625 5.57687,0.74064 -1.1502,21.60294 4.45117,21.32813 4.91647,-0.2413 -2.02013,-17.99622 2.83399,-19.05078 1.37828,-0.29942 0.68899,4.7941 2.08594,4.78125 1.23238,-0.0108 0.56435,-4.16047 1.79492,-4.25 1.696,-0.123 1.27819,5.85183 2.95117,5.46484 2.9284,-0.67734 -0.56907,-10.7451 2.37305,-11.31055 2.33564,-0.44885 1.40994,7.57467 3.75781,7.89453 1.30078,0.17722 1.41288,-3.71911 2.7207,-3.71875 1.28048,3.6e-4 1.38332,3.73012 2.66211,3.64258 1.41168,-0.0969 1.19884,-4.19375 2.60352,-4.40234 1.3602,-0.20212 1.82781,3.68217 3.18164,3.41601 1.30471,-0.25642 0.88864,-4.52319 2.19922,-4.32617 2.92214,0.43946 0.18182,10.84709 3.12304,10.85352 2.4301,0.005 0.22902,-8.28853 2.60547,-8.95703 1.35839,-0.38209 1.5766,4.15134 2.94922,3.87109 1.28484,-0.2624 0.58012,-3.95178 1.79688,-4.55469 1.23895,-0.61386 2.86404,0.54943 3.70117,1.89844 3.38616,5.4563 -2.63498,20.67886 2.71875,20.82422 5.4164,0.14752 -0.0221,-15.3893 3.41211,-20.90039 0.61305,-0.98384 1.99809,-0.59277 2.66211,-1.51758 1.15394,-1.60685 0.0611,-6.08824 1.73828,-6.22461 2.22503,-0.18185 1.86745,5.34464 3.06445,7.81836 0.96555,1.99539 2.49069,3.50292 3.29688,5.61719 1.41465,3.7101 -0.6047,12.20199 2.54687,11.99218 4.52329,-0.30091 -1.83066,-15.21496 2.31641,-17.60937 1.00832,-0.58218 2.01495,1.30841 2.77734,2.35352 1.26615,1.736 0.95875,6.48014 2.77734,6.22461 l 1.30665,-4.88086 c 0.006,-1.93417 0.0686,-3.87122 1.0664,-4.60743 0.0625,-0.0461 0.12719,-0.0613 0.19141,-0.0879 l 2.2207,-8.28711 -44.15625,-11.83007 z"
         style="opacity:1;fill:#4f8cec;fill-opacity:1;stroke:none;stroke-width:42.23571014;stroke-linecap:round;stroke-linejoin:round;stroke-miterlimit:4;stroke-dasharray:none;stroke-opacity:1;paint-order:fill markers stroke"
         inkscape:connector-curvature="0" />
      <path
         id="rect817"
         transform="scale(0.26458333)"
         d="m 124.98828,228.20898 -4.78711,17.86133 -4.78515,17.86133 -19.144536,71.44727 -4.787109,17.86132 -4.785156,17.86133 44.156251,11.83203 44.15625,11.83203 4.78711,-17.86132 4.78515,-17.86133 19.14454,-71.44727 4.7871,-17.86132 4.78516,-17.86329 -44.15625,-11.83007 z"
         style="opacity:1;fill:none;fill-opacity:1;stroke:#000000;stroke-width:9.89102364;stroke-linecap:round;stroke-linejoin:round;stroke-miterlimit:4;stroke-dasharray:none;stroke-opacity:1;paint-order:fill markers stroke"
         inkscape:connector-curvature="0" />
      <path
         sodipodi:nodetypes="cc"
         inkscape:connector-curvature="0"
         id="path820"
         d="m 44.752717,62.990881 2.591785,-9.704579"
         style="fill:none;stroke:#000000;stroke-width:2.66499996;stroke-linecap:round;stroke-linejoin:miter;stroke-miterlimit:4;stroke-dasharray:none;stroke-opacity:1" />
      <path
         sodipodi:nodetypes="cc"
         inkscape:connector-curvature="0"
         id="path820-3"
         d="m 31.601552,111.55166 2.591785,-9.70457"
         style="fill:none;stroke:#000000;stroke-width:2.66499996;stroke-linecap:round;stroke-linejoin:miter;stroke-miterlimit:4;stroke-dasharray:none;stroke-opacity:1" />
      <path
         style="opacity:1;fill:none;fill-opacity:1;stroke:#000000;stroke-width:9.89102364;stroke-linecap:round;stroke-linejoin:round;stroke-miterlimit:4;stroke-dasharray:none;stroke-opacity:1;paint-order:fill markers stroke"
         d="m 124.98828,228.20898 -4.78711,17.86133 -4.78515,17.86133 -19.144536,71.44727 -4.787109,17.86132 -4.785156,17.86133 44.156251,11.83203 44.15625,11.83203 4.78711,-17.86132 4.78515,-17.86133 19.14454,-71.44727 4.7871,-17.86132 4.78516,-17.86329 -44.15625,-11.83007 z"
         transform="scale(0.26458333)"
         id="path857"
         inkscape:connector-curvature="0" />
    </g>
    <g
       aria-label="Resistor Values"
       style="font-style:normal;font-variant:normal;font-weight:bold;font-stretch:normal;font-size:15.80663109px;line-height:1.25;font-family:'Source Code Pro';-inkscape-font-specification:'Source Code Pro, Bold';font-variant-ligatures:normal;font-variant-caps:normal;font-variant-numeric:normal;font-feature-settings:normal;text-align:start;letter-spacing:0px;word-spacing:0px;writing-mode:lr-tb;text-anchor:start;fill:#000000;fill-opacity:1;stroke:none;stroke-width:0.39516574"
       id="text830">
      <path
         d="m 67.926098,154.37216 v -10.30592 h 3.651331 q 0.821945,0 1.533244,0.15806 0.727105,0.15807 1.26453,0.53743 0.553232,0.36355 0.869365,0.98001 0.316132,0.61646 0.316132,1.53324 0,1.13808 -0.505812,1.88099 -0.505812,0.72711 -1.327757,1.09066 l 2.323575,4.12553 h -2.608094 l -1.975829,-3.71456 h -1.217111 v 3.71456 z m 2.323574,-5.56393 h 1.138078 q 1.880989,0 1.880989,-1.53325 0,-0.75871 -0.474199,-1.05904 -0.474199,-0.30033 -1.40679,-0.30033 h -1.138078 z"
         style="font-style:normal;font-variant:normal;font-weight:bold;font-stretch:normal;font-size:15.80663109px;font-family:'Source Code Pro';-inkscape-font-specification:'Source Code Pro, Bold';font-variant-ligatures:normal;font-variant-caps:normal;font-variant-numeric:normal;font-feature-settings:normal;text-align:start;writing-mode:lr-tb;text-anchor:start;stroke-width:0.39516574"
         id="path842" />
      <path
         d="m 81.513626,154.56184 q -0.916785,0 -1.722923,-0.26871 -0.790331,-0.28452 -1.375177,-0.80614 -0.584845,-0.52162 -0.916784,-1.28034 -0.33194,-0.77452 -0.33194,-1.75453 0,-0.96421 0.33194,-1.72293 0.347746,-0.77452 0.916784,-1.29614 0.569039,-0.53742 1.296144,-0.80614 0.742912,-0.28452 1.533243,-0.28452 0.900978,0 1.59647,0.28452 0.695492,0.28452 1.153884,0.79033 0.474199,0.50582 0.711298,1.20131 0.2371,0.67968 0.2371,1.48582 0,0.31613 -0.04742,0.61646 -0.03161,0.28452 -0.06323,0.42678 h -5.342641 q 0.173873,0.85356 0.774525,1.24872 0.600652,0.39517 1.564857,0.39517 0.537425,0 1.011624,-0.14226 0.490006,-0.14226 1.011624,-0.41097 l 0.774525,1.40679 q -0.679685,0.42678 -1.50163,0.67968 -0.821945,0.2371 -1.612276,0.2371 z m -0.18968,-6.4491 q -0.695491,0 -1.16969,0.36355 -0.458393,0.36355 -0.632266,1.10646 h 3.351006 q -0.173873,-1.47001 -1.54905,-1.47001 z"
         style="font-style:normal;font-variant:normal;font-weight:bold;font-stretch:normal;font-size:15.80663109px;font-family:'Source Code Pro';-inkscape-font-specification:'Source Code Pro, Bold';font-variant-ligatures:normal;font-variant-caps:normal;font-variant-numeric:normal;font-feature-settings:normal;text-align:start;writing-mode:lr-tb;text-anchor:start;stroke-width:0.39516574"
         id="path844" />
      <path
         d="m 90.454005,154.56184 q -1.059045,0 -2.070669,-0.34774 -1.011624,-0.34775 -1.770343,-0.85356 l 0.995818,-1.45421 q 0.727105,0.45839 1.517437,0.69549 0.790331,0.2371 1.643889,0.2371 0.648072,0 0.948398,-0.18968 0.300326,-0.18968 0.300326,-0.4742 0,-0.15807 -0.09484,-0.28452 -0.07903,-0.12645 -0.300326,-0.22129 -0.205486,-0.11065 -0.584845,-0.20549 -0.379359,-0.0948 -0.948398,-0.22129 -1.59647,-0.34775 -2.291961,-0.93259 -0.695492,-0.60065 -0.695492,-1.51744 0,-0.53742 0.252906,-0.99582 0.252906,-0.45839 0.711298,-0.77452 0.474199,-0.31613 1.138078,-0.49001 0.663878,-0.18968 1.50163,-0.18968 1.059044,0 1.912602,0.34775 0.869365,0.33194 1.485823,0.7271 l -1.043237,1.39099 q -0.600652,-0.36355 -1.248724,-0.55323 -0.648072,-0.18968 -1.31195,-0.18968 -0.553233,0 -0.821945,0.17387 -0.268713,0.17387 -0.268713,0.44258 0,0.33194 0.410972,0.4742 0.410973,0.14226 1.406791,0.36356 0.900978,0.20548 1.50163,0.44258 0.600652,0.2371 0.948397,0.53743 0.347746,0.30032 0.490006,0.67968 0.14226,0.37936 0.14226,0.85356 0,0.53743 -0.252906,0.99582 -0.252907,0.45839 -0.742912,0.80614 -0.474199,0.33194 -1.201304,0.53742 -0.711298,0.18968 -1.659696,0.18968 z"
         style="font-style:normal;font-variant:normal;font-weight:bold;font-stretch:normal;font-size:15.80663109px;font-family:'Source Code Pro';-inkscape-font-specification:'Source Code Pro, Bold';font-variant-ligatures:normal;font-variant-caps:normal;font-variant-numeric:normal;font-feature-settings:normal;text-align:start;writing-mode:lr-tb;text-anchor:start;stroke-width:0.39516574"
         id="path846" />
      <path
         d="m 99.647289,154.37216 v -6.02232 H 96.50177 v -1.81777 h 5.46909 v 7.84009 z m 1.059041,-9.073 q -0.67968,0 -1.122267,-0.37936 -0.426779,-0.37936 -0.426779,-1.02743 0,-0.64808 0.426779,-1.04324 0.442587,-0.41097 1.122267,-0.41097 0.67969,0 1.10647,0.41097 0.44258,0.39516 0.44258,1.04324 0,0.64807 -0.44258,1.02743 -0.42678,0.37936 -1.10647,0.37936 z"
         style="font-style:normal;font-variant:normal;font-weight:bold;font-stretch:normal;font-size:15.80663109px;font-family:'Source Code Pro';-inkscape-font-specification:'Source Code Pro, Bold';font-variant-ligatures:normal;font-variant-caps:normal;font-variant-numeric:normal;font-feature-settings:normal;text-align:start;writing-mode:lr-tb;text-anchor:start;stroke-width:0.39516574"
         id="path848" />
      <path
         d="m 109.40961,154.56184 q -1.05904,0 -2.07067,-0.34774 -1.01162,-0.34775 -1.77034,-0.85356 l 0.99582,-1.45421 q 0.7271,0.45839 1.51744,0.69549 0.79033,0.2371 1.64389,0.2371 0.64807,0 0.94839,-0.18968 0.30033,-0.18968 0.30033,-0.4742 0,-0.15807 -0.0948,-0.28452 -0.079,-0.12645 -0.30033,-0.22129 -0.20548,-0.11065 -0.58484,-0.20549 -0.37936,-0.0948 -0.9484,-0.22129 -1.59647,-0.34775 -2.29196,-0.93259 -0.69549,-0.60065 -0.69549,-1.51744 0,-0.53742 0.2529,-0.99582 0.25291,-0.45839 0.7113,-0.77452 0.4742,-0.31613 1.13808,-0.49001 0.66388,-0.18968 1.50163,-0.18968 1.05904,0 1.9126,0.34775 0.86937,0.33194 1.48582,0.7271 l -1.04323,1.39099 q -0.60065,-0.36355 -1.24873,-0.55323 -0.64807,-0.18968 -1.31195,-0.18968 -0.55323,0 -0.82194,0.17387 -0.26871,0.17387 -0.26871,0.44258 0,0.33194 0.41097,0.4742 0.41097,0.14226 1.40679,0.36356 0.90098,0.20548 1.50163,0.44258 0.60065,0.2371 0.9484,0.53743 0.34774,0.30032 0.49,0.67968 0.14226,0.37936 0.14226,0.85356 0,0.53743 -0.25291,0.99582 -0.2529,0.45839 -0.74291,0.80614 -0.4742,0.33194 -1.2013,0.53742 -0.7113,0.18968 -1.6597,0.18968 z"
         style="font-style:normal;font-variant:normal;font-weight:bold;font-stretch:normal;font-size:15.80663109px;font-family:'Source Code Pro';-inkscape-font-specification:'Source Code Pro, Bold';font-variant-ligatures:normal;font-variant-caps:normal;font-variant-numeric:normal;font-feature-settings:normal;text-align:start;writing-mode:lr-tb;text-anchor:start;stroke-width:0.39516574"
         id="path850" />
      <path
         d="m 120.34163,154.56184 q -0.93259,0 -1.58066,-0.2529 -0.64808,-0.25291 -1.05905,-0.6955 -0.39516,-0.45839 -0.56904,-1.09065 -0.17387,-0.63227 -0.17387,-1.40679 v -2.76616 h -1.97583 v -1.72293 l 2.08648,-0.0948 0.30032,-2.40261 h 1.9126 v 2.40261 h 3.3194 v 1.81777 h -3.3194 v 2.75035 q 0,0.90098 0.39517,1.28034 0.39517,0.36355 1.26453,0.36355 0.44259,0 0.80614,-0.079 0.37936,-0.079 0.74291,-0.20549 l 0.41097,1.6755 q -0.52162,0.15807 -1.15388,0.28452 -0.61646,0.14226 -1.40679,0.14226 z"
         style="font-style:normal;font-variant:normal;font-weight:bold;font-stretch:normal;font-size:15.80663109px;font-family:'Source Code Pro';-inkscape-font-specification:'Source Code Pro, Bold';font-variant-ligatures:normal;font-variant-caps:normal;font-variant-numeric:normal;font-feature-settings:normal;text-align:start;writing-mode:lr-tb;text-anchor:start;stroke-width:0.39516574"
         id="path852" />
      <path
         d="m 128.42845,154.56184 c -2.73803,0 -0.28685,5.5444 -1.54339,5.5444 -1.25654,0 0.97542,-4.40525 -1.23858,-6.61925 -0.36882,-0.34775 -0.66388,-0.77453 -0.88517,-1.28034 -0.22129,-0.51635 -0.33194,-1.10119 -0.33194,-1.75453 0,-0.65334 0.11065,-1.23292 0.33194,-1.73873 0.22129,-0.51635 0.51635,-0.9484 0.88517,-1.29615 0.37936,-0.34774 0.80614,-0.61118 1.28034,-0.79033 0.48473,-0.18968 0.98528,-0.28452 1.50163,-0.28452 0.51635,0 1.01162,0.0948 1.48582,0.28452 0.48474,0.17915 0.91152,0.44259 1.28034,0.79033 0.37936,0.34775 0.67969,0.7798 0.90098,1.29615 0.22129,0.50581 0.33194,1.08539 0.33194,1.73873 0,0.65334 -0.11065,1.23818 -0.33194,1.75453 -0.22129,0.50581 -0.52162,0.93259 -0.90098,1.28034 -0.36882,0.34775 -0.63464,0.51285 -1.11938,0.70253 -1.61998,0.61199 0.15704,3.62452 -0.70736,3.64432 -0.88924,0.0204 0.62169,-3.272 -0.93942,-3.272 z"
         style="font-style:normal;font-variant:normal;font-weight:bold;font-stretch:normal;font-size:15.80663109px;font-family:'Source Code Pro';-inkscape-font-specification:'Source Code Pro, Bold';font-variant-ligatures:normal;font-variant-caps:normal;font-variant-numeric:normal;font-feature-settings:normal;text-align:start;writing-mode:lr-tb;text-anchor:start;stroke-width:0.39516574"
         id="path854"
         inkscape:connector-curvature="0"
         sodipodi:nodetypes="szccscccscccscccss" />
      <path
         d="m 134.99783,154.37216 v -7.84009 h 1.8968 l 0.18968,1.70712 h 0.0474 q 0.58484,-0.96421 1.40679,-1.4226 0.82194,-0.4742 1.77034,-0.4742 0.52162,0 0.83775,0.079 0.33194,0.079 0.67968,0.2371 l -0.47419,1.94421 q -0.36356,-0.11064 -0.66388,-0.15806 -0.28452,-0.0632 -0.72711,-0.0632 -0.7271,0 -1.4384,0.42678 -0.69549,0.42678 -1.20131,1.48582 v 4.07811 z"
         style="font-style:normal;font-variant:normal;font-weight:bold;font-stretch:normal;font-size:15.80663109px;font-family:'Source Code Pro';-inkscape-font-specification:'Source Code Pro, Bold';font-variant-ligatures:normal;font-variant-caps:normal;font-variant-numeric:normal;font-feature-settings:normal;text-align:start;writing-mode:lr-tb;text-anchor:start;stroke-width:0.39516574"
         id="path856" />
      <path
         d="m 155.47088,154.37216 -3.11391,-10.30592 h 2.46584 l 1.23291,4.80521 q 0.2371,0.85356 0.41098,1.6597 0.18968,0.79033 0.41097,1.64389 h 0.0632 q 0.23709,-0.85356 0.42677,-1.64389 0.18968,-0.80614 0.41098,-1.6597 l 1.21711,-4.80521 h 2.37099 l -3.0981,10.30592 z"
         style="font-style:normal;font-variant:normal;font-weight:bold;font-stretch:normal;font-size:15.80663109px;font-family:'Source Code Pro';-inkscape-font-specification:'Source Code Pro, Bold';font-variant-ligatures:normal;font-variant-caps:normal;font-variant-numeric:normal;font-feature-settings:normal;text-align:start;writing-mode:lr-tb;text-anchor:start;stroke-width:0.39516574"
         id="path858" />
      <path
         d="m 165.13836,154.56184 q -0.60065,0 -1.07485,-0.18968 -0.4742,-0.17387 -0.80613,-0.49 -0.33194,-0.33194 -0.52162,-0.75872 -0.17388,-0.42678 -0.17388,-0.93259 0,-0.66388 0.28452,-1.15389 0.28452,-0.50581 0.90098,-0.85356 0.63227,-0.34774 1.61228,-0.55323 0.98001,-0.22129 2.37099,-0.30032 -0.0632,-0.53743 -0.4742,-0.83775 -0.39516,-0.30033 -1.2013,-0.30033 -0.56904,0 -1.15388,0.20549 -0.56904,0.18967 -1.23292,0.52161 l -0.82195,-1.51743 q 0.80614,-0.45839 1.72293,-0.75872 0.93259,-0.30033 1.94421,-0.30033 1.64389,0 2.59229,0.86937 0.9484,0.86936 0.9484,2.67132 v 4.48908 h -1.8968 l -0.17387,-0.88517 h -0.0632 q -0.60065,0.45839 -1.31195,0.77453 -0.7113,0.30032 -1.47002,0.30032 z m 0.74292,-1.80195 q 0.52161,0 0.98001,-0.20549 0.45839,-0.22129 0.86936,-0.53743 v -1.29614 q -0.86936,0.0474 -1.4384,0.15807 -0.56904,0.11064 -0.90098,0.28452 -0.33194,0.15806 -0.4742,0.37935 -0.12645,0.2213 -0.12645,0.4742 0,0.37936 0.28452,0.56904 0.30032,0.17388 0.80614,0.17388 z"
         style="font-style:normal;font-variant:normal;font-weight:bold;font-stretch:normal;font-size:15.80663109px;font-family:'Source Code Pro';-inkscape-font-specification:'Source Code Pro, Bold';font-variant-ligatures:normal;font-variant-caps:normal;font-variant-numeric:normal;font-feature-settings:normal;text-align:start;writing-mode:lr-tb;text-anchor:start;stroke-width:0.39516574"
         id="path860" />
      <path
         d="m 177.3191,154.56184 q -1.48583,0 -2.24454,-0.86936 -0.74292,-0.88517 -0.74292,-2.3868 v -6.1804 h -2.46583 v -1.83357 h 4.78941 v 8.10881 q 0,0.36355 0.0948,0.61645 0.11064,0.2371 0.28452,0.39517 0.18968,0.14226 0.41097,0.20549 0.2371,0.0632 0.49001,0.0632 0.26871,0 0.55323,-0.0474 0.30032,-0.0632 0.66388,-0.20548 l 0.52161,1.70711 q -0.31613,0.0948 -0.58484,0.17388 -0.26871,0.079 -0.53743,0.12645 -0.26871,0.0632 -0.56903,0.0948 -0.30033,0.0316 -0.66388,0.0316 z"
         style="font-style:normal;font-variant:normal;font-weight:bold;font-stretch:normal;font-size:15.80663109px;font-family:'Source Code Pro';-inkscape-font-specification:'Source Code Pro, Bold';font-variant-ligatures:normal;font-variant-caps:normal;font-variant-numeric:normal;font-feature-settings:normal;text-align:start;writing-mode:lr-tb;text-anchor:start;stroke-width:0.39516574"
         id="path862" />
      <path
         d="m 184.07816,154.56184 q -1.34356,0 -1.94421,-0.85356 -0.60066,-0.85355 -0.60066,-2.33938 v -4.83683 h 2.32358 v 4.53651 q 0,0.79033 0.2371,1.15388 0.2371,0.36355 0.90098,0.36355 0.44258,0 0.77452,-0.18968 0.34775,-0.18968 0.75872,-0.7113 v -5.15296 h 2.32358 v 7.84009 h -1.8968 l -0.17387,-1.12227 h -0.0632 q -0.52162,0.60065 -1.15388,0.96421 -0.63227,0.34774 -1.48583,0.34774 z"
         style="font-style:normal;font-variant:normal;font-weight:bold;font-stretch:normal;font-size:15.80663109px;font-family:'Source Code Pro';-inkscape-font-specification:'Source Code Pro, Bold';font-variant-ligatures:normal;font-variant-caps:normal;font-variant-numeric:normal;font-feature-settings:normal;text-align:start;writing-mode:lr-tb;text-anchor:start;stroke-width:0.39516574"
         id="path864" />
      <path
         d="m 195.24728,154.56184 q -0.91679,0 -1.72292,-0.26871 -0.79034,-0.28452 -1.37518,-0.80614 -0.58485,-0.52162 -0.91679,-1.28034 -0.33194,-0.77452 -0.33194,-1.75453 0,-0.96421 0.33194,-1.72293 0.34775,-0.77452 0.91679,-1.29614 0.56904,-0.53742 1.29614,-0.80614 0.74291,-0.28452 1.53325,-0.28452 0.90097,0 1.59647,0.28452 0.69549,0.28452 1.15388,0.79033 0.4742,0.50582 0.7113,1.20131 0.2371,0.67968 0.2371,1.48582 0,0.31613 -0.0474,0.61646 -0.0316,0.28452 -0.0632,0.42678 h -5.34264 q 0.17387,0.85356 0.77452,1.24872 0.60066,0.39517 1.56486,0.39517 0.53743,0 1.01163,-0.14226 0.49,-0.14226 1.01162,-0.41097 l 0.77452,1.40679 q -0.67968,0.42678 -1.50163,0.67968 -0.82194,0.2371 -1.61227,0.2371 z m -0.18968,-6.4491 q -0.69549,0 -1.16969,0.36355 -0.45839,0.36355 -0.63227,1.10646 h 3.35101 q -0.17387,-1.47001 -1.54905,-1.47001 z"
         style="font-style:normal;font-variant:normal;font-weight:bold;font-stretch:normal;font-size:15.80663109px;font-family:'Source Code Pro';-inkscape-font-specification:'Source Code Pro, Bold';font-variant-ligatures:normal;font-variant-caps:normal;font-variant-numeric:normal;font-feature-settings:normal;text-align:start;writing-mode:lr-tb;text-anchor:start;stroke-width:0.39516574"
         id="path866" />
      <path
         d="m 204.18765,154.56184 q -1.05904,0 -2.07067,-0.34774 -1.01162,-0.34775 -1.77034,-0.85356 l 0.99582,-1.45421 q 0.7271,0.45839 1.51743,0.69549 0.79034,0.2371 1.64389,0.2371 0.64808,0 0.9484,-0.18968 0.30033,-0.18968 0.30033,-0.4742 0,-0.15807 -0.0948,-0.28452 -0.079,-0.12645 -0.30033,-0.22129 -0.20548,-0.11065 -0.58484,-0.20549 -0.37936,-0.0948 -0.9484,-0.22129 -1.59647,-0.34775 -2.29196,-0.93259 -0.69549,-0.60065 -0.69549,-1.51744 0,-0.53742 0.2529,-0.99582 0.25291,-0.45839 0.7113,-0.77452 0.4742,-0.31613 1.13808,-0.49001 0.66388,-0.18968 1.50163,-0.18968 1.05904,0 1.9126,0.34775 0.86936,0.33194 1.48582,0.7271 l -1.04323,1.39099 q -0.60066,-0.36355 -1.24873,-0.55323 -0.64807,-0.18968 -1.31195,-0.18968 -0.55323,0 -0.82194,0.17387 -0.26872,0.17387 -0.26872,0.44258 0,0.33194 0.41098,0.4742 0.41097,0.14226 1.40679,0.36356 0.90097,0.20548 1.50163,0.44258 0.60065,0.2371 0.94839,0.53743 0.34775,0.30032 0.49001,0.67968 0.14226,0.37936 0.14226,0.85356 0,0.53743 -0.25291,0.99582 -0.2529,0.45839 -0.74291,0.80614 -0.4742,0.33194 -1.2013,0.53742 -0.7113,0.18968 -1.6597,0.18968 z"
         style="font-style:normal;font-variant:normal;font-weight:bold;font-stretch:normal;font-size:15.80663109px;font-family:'Source Code Pro';-inkscape-font-specification:'Source Code Pro, Bold';font-variant-ligatures:normal;font-variant-caps:normal;font-variant-numeric:normal;font-feature-settings:normal;text-align:start;writing-mode:lr-tb;text-anchor:start;stroke-width:0.39516574"
         id="path868" />
    </g>
  </g>
</svg>
